# xmcd
#
# Track frame offsets: 
#        150
#        13215
#        28700
#        45400
#        54257
#        72175
#        97942
#        115247
#        127132
#        150105
#        167120
#        180890
#        193567
#
# Disc length: 3039 seconds
#
# Revision: 3
# Processed by: cddbd v1.5.2PL0 Copyright (c) Steve Scherf et al.
# Submitted via: ExactAudioCopy v0.99pb5
#
DISCID=9a0bdd0d
DTITLE=Tarnation - Mirador
DYEAR=1997
DGENRE=Country
TTITLE0=An Awful Shade of Blue
TTITLE1=Wait
TTITLE2=A Place Where I Know
TTITLE3=Is She Lonesome Now
TTITLE4=Your Thoughts and Mine
TTITLE5=Christine
TTITLE6=Destiny
TTITLE7=There's Someone
TTITLE8=Like a Ghost
TTITLE9=Idly
TTITLE10=Little Black Egg
TTITLE11=You'll Understand
TTITLE12=[Untitled]
EXTD=
EXTT0=
EXTT1=
EXTT2=
EXTT3=
EXTT4=
EXTT5=
EXTT6=
EXTT7=
EXTT8=
EXTT9=
EXTT10=
EXTT11=
EXTT12=
PLAYORDER=
